<svg width="469" height="223" viewBox="0 0 469 223" fill="none" xmlns="http://www.w3.org/2000/svg">
<g filter="url(#filter0_dg_298_528)">
<rect x="14" y="4" width="451" height="204.225" rx="30" fill="#FB5404"/>
</g>
<path d="M128.38 126.484V124.797H131.755V123.109H133.442V121.422H135.13V118.047H136.817V111.297H135.13V107.922H133.442V106.234H131.755V104.547H128.38V102.859H123.317V104.547H119.942V106.234H118.255V107.922H116.567V111.297H114.88V118.047H116.567V121.422H118.255V123.109H119.942V124.797H123.317V126.484H128.38ZM121.63 131.547V129.859H116.567V128.172H114.88V126.484H113.192V124.797H111.505V121.422H109.817V107.922H111.505V104.547H113.192V102.859H114.88V101.172H116.567V99.4844H121.63V97.7969H130.067V99.4844H135.13V101.172H136.817V102.859H138.505V104.547H140.192V107.922H141.88V121.422H140.192V124.797H138.505V126.484H136.817V128.172H135.13V129.859H130.067V131.547H121.63ZM163.448 111.297V109.609H165.136V104.547H163.448V102.859H151.636V111.297H163.448ZM146.573 131.547V97.7969H165.136V99.4844H166.823V101.172H168.511V102.859H170.198V111.297H168.511V112.984H166.823V114.672H165.136V116.359H151.636V131.547H146.573ZM174.891 131.547V97.7969H195.141V102.859H179.954V111.297H195.141V116.359H179.954V126.484H195.141V131.547H174.891ZM201.259 131.547V97.7969H209.696V101.172H211.384V104.547H213.071V107.922H214.759V111.297H216.446V114.672H218.134V118.047H219.821V121.422H221.509V124.797H223.196V97.7969H228.259V131.547H219.821V128.172H218.134V124.797H216.446V121.422H214.759V118.047H213.071V114.672H211.384V111.297H209.696V107.922H208.009V104.547H206.321V131.547H201.259ZM260.796 131.547V129.859H255.733V128.172H254.046V126.484H252.358V124.797H250.671V121.422H248.983V107.922H250.671V104.547H252.358V102.859H254.046V101.172H255.733V99.4844H260.796V97.7969H269.233V99.4844H274.296V101.172H275.983V104.547H277.671V106.234H279.358V107.922H272.608V106.234H270.921V104.547H267.546V102.859H262.483V104.547H259.108V106.234H257.421V107.922H255.733V111.297H254.046V118.047H255.733V121.422H257.421V123.109H259.108V124.797H262.483V126.484H267.546V124.797H270.921V123.109H272.608V121.422H279.358V123.109H277.671V124.797H275.983V128.172H274.296V129.859H269.233V131.547H260.796ZM304.407 116.359V114.672H302.72V111.297H301.032V107.922H299.345V104.547H297.657V107.922H295.97V111.297H294.282V114.672H292.595V116.359H304.407ZM282.47 131.547V126.484H284.157V123.109H285.845V118.047H287.532V114.672H289.22V111.297H290.907V107.922H292.595V104.547H294.282V101.172H295.97V97.7969H301.032V101.172H302.72V104.547H304.407V107.922H306.095V111.297H307.782V114.672H309.47V118.047H311.157V123.109H312.845V126.484H314.532V131.547H309.47V128.172H307.782V124.797H306.095V121.422H290.907V124.797H289.22V128.172H287.532V131.547H282.47ZM318.645 131.547V97.7969H323.708V126.484H340.583V131.547H318.645ZM345.382 131.547V97.7969H350.444V126.484H367.319V131.547H345.382Z" fill="white"/>
<defs>
<filter id="filter0_dg_298_528" x="0" y="0" width="469" height="222.226" filterUnits="userSpaceOnUse" color-interpolation-filters="sRGB">
<feFlood flood-opacity="0" result="BackgroundImageFix"/>
<feColorMatrix in="SourceAlpha" type="matrix" values="0 0 0 0 0 0 0 0 0 0 0 0 0 0 0 0 0 0 127 0" result="hardAlpha"/>
<feOffset dx="-10" dy="10"/>
<feGaussianBlur stdDeviation="2"/>
<feComposite in2="hardAlpha" operator="out"/>
<feColorMatrix type="matrix" values="0 0 0 0 0 0 0 0 0 0 0 0 0 0 0 0 0 0 0.25 0"/>
<feBlend mode="normal" in2="BackgroundImageFix" result="effect1_dropShadow_298_528"/>
<feBlend mode="normal" in="SourceGraphic" in2="effect1_dropShadow_298_528" result="shape"/>
<feTurbulence type="fractalNoise" baseFrequency="0.20000000298023224 0.20000000298023224" numOctaves="3" seed="2875" />
<feDisplacementMap in="shape" scale="8" xChannelSelector="R" yChannelSelector="G" result="displacedImage" width="100%" height="100%" />
<feMerge result="effect2_texture_298_528">
<feMergeNode in="displacedImage"/>
</feMerge>
</filter>
</defs>
</svg>
