<svg width="632" height="389" viewBox="0 0 632 389" fill="none" xmlns="http://www.w3.org/2000/svg">
<g filter="url(#filter0_g_347_553)">
<g filter="url(#filter1_dg_347_553)">
<rect x="14" y="5" width="613" height="370" rx="30" fill="#FD9103"/>
</g>
</g>
<path d="M211.706 70.9375V69.25H215.081V67.5625H216.769V65.875H218.456V62.5H220.144V55.75H218.456V52.375H216.769V50.6875H215.081V49H211.706V47.3125H206.644V49H203.269V50.6875H201.581V52.375H199.894V55.75H198.206V62.5H199.894V65.875H201.581V67.5625H203.269V69.25H206.644V70.9375H211.706ZM204.956 76V74.3125H199.894V72.625H198.206V70.9375H196.519V69.25H194.831V65.875H193.144V52.375H194.831V49H196.519V47.3125H198.206V45.625H199.894V43.9375H204.956V42.25H213.394V43.9375H218.456V45.625H220.144V47.3125H221.831V49H223.519V52.375H225.206V65.875H223.519V69.25H221.831V70.9375H220.144V72.625H218.456V74.3125H213.394V76H204.956ZM246.774 55.75V54.0625H248.462V49H246.774V47.3125H234.962V55.75H246.774ZM229.899 76V42.25H248.462V43.9375H250.149V45.625H251.837V47.3125H253.524V55.75H251.837V57.4375H250.149V59.125H248.462V60.8125H234.962V76H229.899ZM258.218 76V42.25H278.468V47.3125H263.28V55.75H278.468V60.8125H263.28V70.9375H278.468V76H258.218ZM284.585 76V42.25H293.022V45.625H294.71V49H296.397V52.375H298.085V55.75H299.772V59.125H301.46V62.5H303.147V65.875H304.835V69.25H306.522V42.25H311.585V76H303.147V72.625H301.46V69.25H299.772V65.875H298.085V62.5H296.397V59.125H294.71V55.75H293.022V52.375H291.335V49H289.647V76H284.585ZM344.122 76V74.3125H339.06V72.625H337.372V70.9375H335.685V69.25H333.997V65.875H332.31V52.375H333.997V49H335.685V47.3125H337.372V45.625H339.06V43.9375H344.122V42.25H352.56V43.9375H357.622V45.625H359.31V49H360.997V50.6875H362.685V52.375H355.935V50.6875H354.247V49H350.872V47.3125H345.81V49H342.435V50.6875H340.747V52.375H339.06V55.75H337.372V62.5H339.06V65.875H340.747V67.5625H342.435V69.25H345.81V70.9375H350.872V69.25H354.247V67.5625H355.935V65.875H362.685V67.5625H360.997V69.25H359.31V72.625H357.622V74.3125H352.56V76H344.122ZM387.733 60.8125V59.125H386.046V55.75H384.358V52.375H382.671V49H380.983V52.375H379.296V55.75H377.608V59.125H375.921V60.8125H387.733ZM365.796 76V70.9375H367.483V67.5625H369.171V62.5H370.858V59.125H372.546V55.75H374.233V52.375H375.921V49H377.608V45.625H379.296V42.25H384.358V45.625H386.046V49H387.733V52.375H389.421V55.75H391.108V59.125H392.796V62.5H394.483V67.5625H396.171V70.9375H397.858V76H392.796V72.625H391.108V69.25H389.421V65.875H374.233V69.25H372.546V72.625H370.858V76H365.796ZM401.972 76V42.25H407.034V70.9375H423.909V76H401.972ZM428.708 76V42.25H433.771V70.9375H450.646V76H428.708Z" fill="white"/>
<defs>
<filter id="filter0_g_347_553" x="9" y="0" width="623" height="380" filterUnits="userSpaceOnUse" color-interpolation-filters="sRGB">
<feFlood flood-opacity="0" result="BackgroundImageFix"/>
<feBlend mode="normal" in="SourceGraphic" in2="BackgroundImageFix" result="shape"/>
<feTurbulence type="fractalNoise" baseFrequency="0.20000000298023224 0.20000000298023224" numOctaves="3" seed="9274" />
<feDisplacementMap in="shape" scale="10" xChannelSelector="R" yChannelSelector="G" result="displacedImage" width="100%" height="100%" />
<feMerge result="effect1_texture_347_553">
<feMergeNode in="displacedImage"/>
</feMerge>
</filter>
<filter id="filter1_dg_347_553" x="0" y="1" width="631" height="388" filterUnits="userSpaceOnUse" color-interpolation-filters="sRGB">
<feFlood flood-opacity="0" result="BackgroundImageFix"/>
<feColorMatrix in="SourceAlpha" type="matrix" values="0 0 0 0 0 0 0 0 0 0 0 0 0 0 0 0 0 0 127 0" result="hardAlpha"/>
<feOffset dx="-10" dy="10"/>
<feGaussianBlur stdDeviation="2"/>
<feComposite in2="hardAlpha" operator="out"/>
<feColorMatrix type="matrix" values="0 0 0 0 0 0 0 0 0 0 0 0 0 0 0 0 0 0 0.25 0"/>
<feBlend mode="normal" in2="BackgroundImageFix" result="effect1_dropShadow_347_553"/>
<feBlend mode="normal" in="SourceGraphic" in2="effect1_dropShadow_347_553" result="shape"/>
<feTurbulence type="fractalNoise" baseFrequency="0.20000000298023224 0.20000000298023224" numOctaves="3" seed="2875" />
<feDisplacementMap in="shape" scale="8" xChannelSelector="R" yChannelSelector="G" result="displacedImage" width="100%" height="100%" />
<feMerge result="effect2_texture_347_553">
<feMergeNode in="displacedImage"/>
</feMerge>
</filter>
</defs>
</svg>
