<svg width="632" height="389" viewBox="0 0 632 389" fill="none" xmlns="http://www.w3.org/2000/svg">
<g filter="url(#filter0_g_347_554)">
<g filter="url(#filter1_dg_347_554)">
<rect x="14" y="5" width="613" height="370" rx="30" fill="#FB5404"/>
</g>
</g>
<path d="M198.709 77V73.625H197.021V68.5625H195.334V65.1875H193.646V60.125H191.959V55.0625H190.271V51.6875H188.584V46.625H186.896V43.25H191.959V46.625H193.646V51.6875H195.334V55.0625H197.021V60.125H198.709V65.1875H200.396V68.5625H202.084V65.1875H203.771V60.125H205.459V55.0625H207.146V51.6875H208.834V46.625H210.521V43.25H215.584V46.625H213.896V51.6875H212.209V55.0625H210.521V60.125H208.834V65.1875H207.146V68.5625H205.459V73.625H203.771V77H198.709ZM235.254 71.9375V70.25H238.629V68.5625H240.316V66.875H242.004V63.5H243.691V56.75H242.004V53.375H240.316V51.6875H238.629V50H235.254V48.3125H230.191V50H226.816V51.6875H225.129V53.375H223.441V56.75H221.754V63.5H223.441V66.875H225.129V68.5625H226.816V70.25H230.191V71.9375H235.254ZM228.504 77V75.3125H223.441V73.625H221.754V71.9375H220.066V70.25H218.379V66.875H216.691V53.375H218.379V50H220.066V48.3125H221.754V46.625H223.441V44.9375H228.504V43.25H236.941V44.9375H242.004V46.625H243.691V48.3125H245.379V50H247.066V53.375H248.754V66.875H247.066V70.25H245.379V71.9375H243.691V73.625H242.004V75.3125H236.941V77H228.504ZM253.447 77V43.25H258.51V71.9375H275.385V77H253.447ZM286.828 77V75.3125H283.453V73.625H281.766V70.25H280.078V43.25H285.141V66.875H286.828V70.25H288.516V71.9375H296.953V70.25H298.641V66.875H300.328V43.25H305.391V70.25H303.703V73.625H302.016V75.3125H298.641V77H286.828ZM311.508 77V43.25H319.945V46.625H321.633V50H323.32V53.375H325.008V56.75H326.695V60.125H328.383V63.5H330.07V66.875H331.758V70.25H333.445V43.25H338.508V77H330.07V73.625H328.383V70.25H326.695V66.875H325.008V63.5H323.32V60.125H321.633V56.75H319.945V53.375H318.258V50H316.57V77H311.508ZM353.432 77V48.3125H341.619V43.25H370.307V48.3125H358.494V77H353.432ZM373.629 77V43.25H393.879V48.3125H378.691V56.75H393.879V61.8125H378.691V71.9375H393.879V77H373.629ZM399.996 77V43.25H420.246V48.3125H405.059V56.75H420.246V61.8125H405.059V71.9375H420.246V77H399.996ZM443.238 56.75V55.0625H444.926V50H443.238V48.3125H431.426V56.75H443.238ZM426.363 77V43.25H444.926V44.9375H446.613V46.625H448.301V48.3125H449.988V56.75H448.301V58.4375H446.613V60.125H444.926V61.8125H439.863V63.5H441.551V65.1875H443.238V66.875H444.926V68.5625H446.613V70.25H448.301V71.9375H449.988V73.625H451.676V75.3125H453.363V77H446.613V75.3125H444.926V73.625H443.238V71.9375H441.551V70.25H439.863V68.5625H438.176V66.875H436.488V65.1875H434.801V63.5H433.113V61.8125H431.426V77H426.363Z" fill="white"/>
<defs>
<filter id="filter0_g_347_554" x="9" y="0" width="623" height="380" filterUnits="userSpaceOnUse" color-interpolation-filters="sRGB">
<feFlood flood-opacity="0" result="BackgroundImageFix"/>
<feBlend mode="normal" in="SourceGraphic" in2="BackgroundImageFix" result="shape"/>
<feTurbulence type="fractalNoise" baseFrequency="0.20000000298023224 0.20000000298023224" numOctaves="3" seed="9274" />
<feDisplacementMap in="shape" scale="10" xChannelSelector="R" yChannelSelector="G" result="displacedImage" width="100%" height="100%" />
<feMerge result="effect1_texture_347_554">
<feMergeNode in="displacedImage"/>
</feMerge>
</filter>
<filter id="filter1_dg_347_554" x="0" y="1" width="631" height="388" filterUnits="userSpaceOnUse" color-interpolation-filters="sRGB">
<feFlood flood-opacity="0" result="BackgroundImageFix"/>
<feColorMatrix in="SourceAlpha" type="matrix" values="0 0 0 0 0 0 0 0 0 0 0 0 0 0 0 0 0 0 127 0" result="hardAlpha"/>
<feOffset dx="-10" dy="10"/>
<feGaussianBlur stdDeviation="2"/>
<feComposite in2="hardAlpha" operator="out"/>
<feColorMatrix type="matrix" values="0 0 0 0 0 0 0 0 0 0 0 0 0 0 0 0 0 0 0.25 0"/>
<feBlend mode="normal" in2="BackgroundImageFix" result="effect1_dropShadow_347_554"/>
<feBlend mode="normal" in="SourceGraphic" in2="effect1_dropShadow_347_554" result="shape"/>
<feTurbulence type="fractalNoise" baseFrequency="0.20000000298023224 0.20000000298023224" numOctaves="3" seed="2875" />
<feDisplacementMap in="shape" scale="8" xChannelSelector="R" yChannelSelector="G" result="displacedImage" width="100%" height="100%" />
<feMerge result="effect2_texture_347_554">
<feMergeNode in="displacedImage"/>
</feMerge>
</filter>
</defs>
</svg>
