<svg width="469" height="222" viewBox="0 0 469 222" fill="none" xmlns="http://www.w3.org/2000/svg">
<g filter="url(#filter0_dg_298_529)">
<rect x="14" y="4" width="451" height="204" rx="30" fill="#FCBA04"/>
</g>
<path d="M116.383 131.454V128.079H114.695V123.017H113.008V119.642H111.32V114.579H109.633V109.517H107.945V106.142H106.258V101.079H104.57V97.7041H109.633V101.079H111.32V106.142H113.008V109.517H114.695V114.579H116.383V119.642H118.07V123.017H119.758V119.642H121.445V114.579H123.133V109.517H124.82V106.142H126.508V101.079H128.195V97.7041H133.258V101.079H131.57V106.142H129.883V109.517H128.195V114.579H126.508V119.642H124.82V123.017H123.133V128.079H121.445V131.454H116.383ZM152.928 126.392V124.704H156.303V123.017H157.99V121.329H159.678V117.954H161.365V111.204H159.678V107.829H157.99V106.142H156.303V104.454H152.928V102.767H147.865V104.454H144.49V106.142H142.803V107.829H141.115V111.204H139.428V117.954H141.115V121.329H142.803V123.017H144.49V124.704H147.865V126.392H152.928ZM146.178 131.454V129.767H141.115V128.079H139.428V126.392H137.74V124.704H136.053V121.329H134.365V107.829H136.053V104.454H137.74V102.767H139.428V101.079H141.115V99.3916H146.178V97.7041H154.615V99.3916H159.678V101.079H161.365V102.767H163.053V104.454H164.74V107.829H166.428V121.329H164.74V124.704H163.053V126.392H161.365V128.079H159.678V129.767H154.615V131.454H146.178ZM171.121 131.454V97.7041H176.183V126.392H193.058V131.454H171.121ZM204.502 131.454V129.767H201.127V128.079H199.439V124.704H197.752V97.7041H202.814V121.329H204.502V124.704H206.189V126.392H214.627V124.704H216.314V121.329H218.002V97.7041H223.064V124.704H221.377V128.079H219.689V129.767H216.314V131.454H204.502ZM229.181 131.454V97.7041H237.619V101.079H239.306V104.454H240.994V107.829H242.681V111.204H244.369V114.579H246.056V117.954H247.744V121.329H249.431V124.704H251.119V97.7041H256.181V131.454H247.744V128.079H246.056V124.704H244.369V121.329H242.681V117.954H240.994V114.579H239.306V111.204H237.619V107.829H235.931V104.454H234.244V131.454H229.181ZM271.105 131.454V102.767H259.293V97.7041H287.98V102.767H276.168V131.454H271.105ZM291.303 131.454V97.7041H311.553V102.767H296.365V111.204H311.553V116.267H296.365V126.392H311.553V131.454H291.303ZM317.67 131.454V97.7041H337.92V102.767H322.732V111.204H337.92V116.267H322.732V126.392H337.92V131.454H317.67ZM360.912 111.204V109.517H362.599V104.454H360.912V102.767H349.099V111.204H360.912ZM344.037 131.454V97.7041H362.599V99.3916H364.287V101.079H365.974V102.767H367.662V111.204H365.974V112.892H364.287V114.579H362.599V116.267H357.537V117.954H359.224V119.642H360.912V121.329H362.599V123.017H364.287V124.704H365.974V126.392H367.662V128.079H369.349V129.767H371.037V131.454H364.287V129.767H362.599V128.079H360.912V126.392H359.224V124.704H357.537V123.017H355.849V121.329H354.162V119.642H352.474V117.954H350.787V116.267H349.099V131.454H344.037Z" fill="white"/>
<defs>
<filter id="filter0_dg_298_529" x="0" y="0" width="469" height="222" filterUnits="userSpaceOnUse" color-interpolation-filters="sRGB">
<feFlood flood-opacity="0" result="BackgroundImageFix"/>
<feColorMatrix in="SourceAlpha" type="matrix" values="0 0 0 0 0 0 0 0 0 0 0 0 0 0 0 0 0 0 127 0" result="hardAlpha"/>
<feOffset dx="-10" dy="10"/>
<feGaussianBlur stdDeviation="2"/>
<feComposite in2="hardAlpha" operator="out"/>
<feColorMatrix type="matrix" values="0 0 0 0 0 0 0 0 0 0 0 0 0 0 0 0 0 0 0.25 0"/>
<feBlend mode="normal" in2="BackgroundImageFix" result="effect1_dropShadow_298_529"/>
<feBlend mode="normal" in="SourceGraphic" in2="effect1_dropShadow_298_529" result="shape"/>
<feTurbulence type="fractalNoise" baseFrequency="0.20000000298023224 0.20000000298023224" numOctaves="3" seed="2875" />
<feDisplacementMap in="shape" scale="8" xChannelSelector="R" yChannelSelector="G" result="displacedImage" width="100%" height="100%" />
<feMerge result="effect2_texture_298_529">
<feMergeNode in="displacedImage"/>
</feMerge>
</filter>
</defs>
</svg>
